<svg width="54" height="54" viewBox="0 0 54 54" fill="none" xmlns="http://www.w3.org/2000/svg">
<g id="Handshake">
<path id="Vector" d="M50.7727 25.6919L45.5625 28.2864L38.8125 15.3771L44.0859 12.7403C44.4778 12.5406 44.9328 12.5039 45.3517 12.6382C45.7705 12.7726 46.1193 13.0671 46.3219 13.4575L51.5109 23.3927C51.6162 23.5916 51.6806 23.8095 51.7003 24.0336C51.7201 24.2577 51.6948 24.4836 51.6261 24.6978C51.5573 24.912 51.4463 25.1103 51.2998 25.2811C51.1532 25.4518 50.974 25.5915 50.7727 25.6919V25.6919Z" stroke="#3C888D" stroke-width="4" stroke-linecap="round" stroke-linejoin="round"/>
<path id="Vector_2" d="M8.43812 28.0755L3.22796 25.4598C3.02735 25.3615 2.84856 25.2239 2.70221 25.0551C2.55587 24.8862 2.44496 24.6897 2.37609 24.4772C2.30721 24.2647 2.28178 24.0405 2.30129 23.8179C2.32081 23.5954 2.38487 23.379 2.48968 23.1817L7.67874 13.2466C7.88173 12.8564 8.22903 12.5609 8.64666 12.423C9.0643 12.2851 9.51927 12.3157 9.91468 12.5083L15.1881 15.145L8.43812 28.0755Z" stroke="#3C888D" stroke-width="4" stroke-linecap="round" stroke-linejoin="round"/>
<path id="Vector_3" d="M45.5625 28.2871L42.1875 32.2527L34.425 40.0152C34.2134 40.2131 33.9571 40.3567 33.6779 40.4338C33.3987 40.511 33.105 40.5193 32.8219 40.4582L20.5875 37.3996C20.364 37.3373 20.1558 37.2296 19.9758 37.0832L8.4375 28.0762" stroke="#3C888D" stroke-width="4" stroke-linecap="round" stroke-linejoin="round"/>
<path id="Vector_4" d="M42.1878 32.252L32.9066 25.502L30.2066 27.527C29.0368 28.4 27.6162 28.8717 26.1566 28.8717C24.6969 28.8717 23.2763 28.4 22.1066 27.527L20.9675 26.6621C20.7749 26.5157 20.6156 26.33 20.5001 26.1174C20.3846 25.9047 20.3156 25.67 20.2977 25.4287C20.2797 25.1874 20.3132 24.9451 20.396 24.7177C20.4787 24.4903 20.6088 24.2831 20.7777 24.1098L29.0464 15.8621C29.2017 15.7076 29.386 15.5851 29.5887 15.5019C29.7914 15.4187 30.0085 15.3762 30.2277 15.377H38.8128" stroke="#3C888D" stroke-width="4" stroke-linecap="round" stroke-linejoin="round"/>
<path id="Vector_5" d="M15.3145 15.1455L26.1355 11.9814C26.52 11.8711 26.9312 11.901 27.2957 12.0658L34.5941 15.3775" stroke="#3C888D" stroke-width="4" stroke-linecap="round" stroke-linejoin="round"/>
<path id="Vector_6" d="M23.625 44.9086L17.2758 43.3055C17.0171 43.247 16.7775 43.1236 16.5797 42.9469L11.8125 38.8125" stroke="#3C888D" stroke-width="4" stroke-linecap="round" stroke-linejoin="round"/>
</g>
</svg>
