<svg width="48" height="46" viewBox="0 0 48 46" fill="none" xmlns="http://www.w3.org/2000/svg">
<path id="Vector" d="M29.1375 41.4L42.525 37.2375C42.3375 36.9 42.066 36.609 41.7105 36.3645C41.355 36.12 40.9515 35.9985 40.5 36H29.1375C28.125 36 27.3188 35.9625 26.7188 35.8875C26.1188 35.8125 25.5 35.6625 24.8625 35.4375L21.6563 34.3688C21.0563 34.1813 20.625 33.8063 20.3625 33.2438C20.1 32.6813 20.0625 32.1 20.25 31.5C20.4375 30.9 20.8035 30.459 21.348 30.177C21.8925 29.895 22.464 29.8485 23.0625 30.0375L25.425 30.825C26.0625 31.0125 26.7848 31.1625 27.5918 31.275C28.3988 31.3875 29.4953 31.4625 30.8813 31.5H31.5C31.5 31.0875 31.3785 30.6938 31.1355 30.3188C30.8925 29.9438 30.6015 29.7 30.2625 29.5875L17.1 24.75H13.5V37.125L29.1375 41.4ZM27.9563 45.7875L13.5 41.7375C13.2 42.7125 12.609 43.5 11.727 44.1C10.845 44.7 9.936 45 9 45H4.5C3.2625 45 2.20275 44.559 1.32075 43.677C0.438754 42.795 -0.00149618 41.736 3.82003e-06 40.5V24.75C3.82003e-06 23.5125 0.441004 22.4528 1.323 21.5708C2.205 20.6888 3.264 20.2485 4.5 20.25H17.1C17.3625 20.25 17.625 20.2785 17.8875 20.3355C18.15 20.3925 18.3938 20.4578 18.6188 20.5313L31.8375 25.425C33.075 25.875 34.0785 26.6625 34.848 27.7875C35.6175 28.9125 36.0015 30.15 36 31.5H40.5C42.375 31.5 43.9688 32.1188 45.2813 33.3563C46.5938 34.5938 47.25 36.225 47.25 38.25C47.25 39.075 47.034 39.7223 46.602 40.1918C46.17 40.6613 45.5048 41.0453 44.6063 41.3438L30.5438 45.7313C30.1313 45.8813 29.7 45.9563 29.25 45.9563C28.8 45.9563 28.3688 45.9 27.9563 45.7875ZM4.5 40.5H9V24.75H4.5V40.5ZM33.75 22.95C33.1875 22.95 32.634 22.8465 32.0895 22.6395C31.545 22.4325 31.0485 22.1235 30.6 21.7125L24.4125 15.6375C23.25 14.5125 22.266 13.266 21.4605 11.898C20.655 10.53 20.2515 9.03901 20.25 7.42501C20.25 5.36251 20.9723 3.60976 22.4168 2.16676C23.8613 0.723757 25.614 0.00150664 27.675 6.63717e-06C28.875 6.63717e-06 30 0.253507 31.05 0.760507C32.1 1.26751 33 1.95151 33.75 2.81251C34.5 1.95001 35.4 1.26526 36.45 0.758256C37.5 0.251256 38.625 -0.00149336 39.825 6.63717e-06C41.8875 6.63717e-06 43.6403 0.722257 45.0833 2.16676C46.5263 3.61126 47.2485 5.36401 47.25 7.42501C47.25 9.03751 46.8563 10.5285 46.0688 11.898C45.2813 13.2675 44.3063 14.514 43.1438 15.6375L36.9 21.7125C36.45 22.125 35.9535 22.4348 35.4105 22.6418C34.8675 22.8488 34.314 22.9515 33.75 22.95ZM33.75 18.45L39.8813 12.4313C40.5938 11.7188 41.25 10.959 41.85 10.152C42.45 9.34501 42.75 8.43601 42.75 7.42501C42.75 6.60001 42.4688 5.90626 41.9063 5.34376C41.3438 4.78126 40.65 4.50001 39.825 4.50001C39.3 4.50001 38.8028 4.60276 38.3333 4.80826C37.8638 5.01376 37.461 5.32351 37.125 5.73751L35.4938 7.70626C35.0438 8.23126 34.4625 8.49376 33.75 8.49376C33.0375 8.49376 32.4563 8.23126 32.0063 7.70626L30.375 5.73751C30.0375 5.32501 29.634 5.01526 29.1645 4.80826C28.695 4.60126 28.1985 4.49851 27.675 4.50001C26.85 4.50001 26.1563 4.78126 25.5938 5.34376C25.0313 5.90626 24.75 6.60001 24.75 7.42501C24.75 8.43751 25.05 9.34726 25.65 10.1543C26.25 10.9613 26.9063 11.7203 27.6188 12.4313L33.75 18.45Z" fill="#3C888D"/>
</svg>
